# xmcd
#
# Track frame offsets:
#	150
#	16202
#	30720
#	44101
#	60609
#	75782
#	88426
#	105683
#	122980
#
# Disc length: 1867
#
# Revision: 1
# Processed by: cddbd v1.5.2PL0 Copyright (c) Steve Scherf et al.
# Submitted via: kJams Pro (development) 1.0patch52.30
#
DISCID=72074909
DTITLE=Unknown Artist - FTX–C408
DYEAR=2011
DGENRE=Country
TTITLE0=Brantely Gilbert - Country Must Be Country Wide
TTITLE1=Pistol Annies - Hell On Heels
TTITLE2=George Strait - Here For A Good Time
TTITLE3=Rodney Atkins - Take A Back Road
TTITLE4=Shania Twain - Today Is Your Day
TTITLE5=Kelly Pickler - Tough
TTITLE6=Band Perry, The - All Your Life
TTITLE7=Blake Shelton - God Gave Me You
TTITLE8=Justin Moore - Far Away
EXTD=
EXTT0=
EXTT1=
EXTT2=
EXTT3=
EXTT4=
EXTT5=
EXTT6=
EXTT7=
EXTT8=
PLAYORDER=
